<?xml version="1.0" encoding="UTF-8"?>
<svg width="48px" height="48px" viewBox="0 0 48 48" version="1.1" xmlns="http://www.w3.org/2000/svg" xmlns:xlink="http://www.w3.org/1999/xlink">
    <title>DOTA-选中</title>
    <g id="页面-1" stroke="none" stroke-width="1" fill="none" fill-rule="evenodd">
        <g id="icon-切图" transform="translate(-136.000000, -620.000000)" fill="#E41F35" fill-rule="nonzero">
            <g id="DOTA-选中" transform="translate(136.000000, 620.000000)">
                <path d="M37.2857143,7.71428571 C38.9425685,7.71428571 40.2857143,9.05743146 40.2857143,10.7142857 L40.2857143,37.2857143 C40.2857143,38.9425685 38.9425685,40.2857143 37.2857143,40.2857143 L10.7142857,40.2857143 C9.05743146,40.2857143 7.71428571,38.9425685 7.71428571,37.2857143 L7.71428571,10.7142857 C7.71428571,9.05743146 9.05743146,7.71428571 10.7142857,7.71428571 L37.2857143,7.71428571 Z M14.7142857,12.8571429 L12.8571429,13.9183673 L29.5714286,35.1428571 L33.2857143,35.1428571 L35.1428571,28.7755102 L14.7142857,12.8571429 Z M14.7456078,29.5714286 L12.8571429,33.4923392 L15.2467619,35.1428571 L17.5153038,35.1428571 L21.2142857,33.8992137 L14.7456078,29.5714286 Z M33.0936344,12.8571429 L30.2654023,13.8496615 L29.0360622,13.8496615 L28.1785714,14.5533414 L34.1176411,19.8214286 L34.6614482,18.1204629 L35.1428571,14.5533414 L33.0936344,12.8571429 Z" id="合并形状"></path>
            </g>
        </g>
    </g>
</svg>