<?xml version="1.0" encoding="UTF-8"?>
<svg width="234px" height="44px" viewBox="0 0 234 44" version="1.1" xmlns="http://www.w3.org/2000/svg" xmlns:xlink="http://www.w3.org/1999/xlink">
    <!-- Generator: Sketch 64 (93537) - https://sketch.com -->
    <title>logo英文横</title>
    <desc>Created with Sketch.</desc>
    <defs>
        <polygon id="path-1" points="0 0.00833675489 11.1011399 18.7484933 22.2024531 0.00833675489"></polygon>
        <linearGradient x1="30.5888257%" y1="15.1804787%" x2="74.4694741%" y2="49.5841004%" id="linearGradient-3">
            <stop stop-color="#00668E" offset="0%"></stop>
            <stop stop-color="#00466E" offset="100%"></stop>
        </linearGradient>
        <polygon id="path-4" points="12.8522997 0.00833675489 0.0976141587 21.5393957 6.47495694 32.3049252 25.6068119 0.00833675489"></polygon>
        <linearGradient x1="23.3126569%" y1="76.5567065%" x2="79.1962778%" y2="-2.01063855%" id="linearGradient-6">
            <stop stop-color="#00FFF6" offset="0%"></stop>
            <stop stop-color="#00B1DA" offset="100%"></stop>
        </linearGradient>
        <polygon id="path-7" points="0.0976141587 21.5393957 12.8522997 0.00833675489 25.6068119 0.00833675489"></polygon>
        <linearGradient x1="1.7250907%" y1="85.8654498%" x2="73.9434883%" y2="15.4098161%" id="linearGradient-9">
            <stop stop-color="#00668E" offset="0%"></stop>
            <stop stop-color="#00466E" offset="100%"></stop>
        </linearGradient>
        <polygon id="path-10" points="0 0.00833675489 11.1011399 18.7483197 6.8496358 0.00833675489"></polygon>
        <linearGradient x1="40.2752013%" y1="-12.5459514%" x2="64.1671165%" y2="87.1967327%" id="linearGradient-12">
            <stop stop-color="#00FFF6" offset="0%"></stop>
            <stop stop-color="#00B1DA" offset="100%"></stop>
        </linearGradient>
    </defs>
    <g id="页面-1" stroke="none" stroke-width="1" fill="none" fill-rule="evenodd">
        <g id="icon-切图" transform="translate(-368.000000, -160.000000)">
            <g id="logo英文横" transform="translate(368.000000, 160.000000)">
                <g id="编组-2" transform="translate(6.368354, 0.000000)">
                    <g id="编组">
                        <g id="编组-3">
                            <polygon id="Fill-1" fill="#00CAE9" points="25.5481394 0 21.7836658 6.09868357 8.23194244 29.114727 8.43445281 29.2356099 22.1857391 6.34565993 25.7508231 0.120882946"></polygon>
                            <polygon id="Fill-2" fill="#00CAE9" points="28.2064001 1.20374057 28.4094306 1.32444983 12.8823642 27.7557838 8.87619589 34.2838103 8.67316538 34.163101 12.4730089 27.5195758"></polygon>
                            <g id="编组" transform="translate(0.000000, 5.905132)">
                                <mask id="mask-2" fill="white">
                                    <use xlink:href="#path-1"></use>
                                </mask>
                                <g id="Clip-4"></g>
                                <polygon id="Fill-3" fill="url(#linearGradient-3)" mask="url(#mask-2)" points="0 0.00833675489 11.1011399 18.7484933 22.2024531 0.00833675489"></polygon>
                            </g>
                            <g id="编组" transform="translate(12.656898, 5.905132)">
                                <mask id="mask-5" fill="white">
                                    <use xlink:href="#path-4"></use>
                                </mask>
                                <g id="Clip-6"></g>
                                <polygon id="Fill-5" fill="url(#linearGradient-6)" mask="url(#mask-5)" points="12.8522997 0.00833675489 0.0976141587 21.5393957 6.47495694 32.3049252 25.6068119 0.00833675489"></polygon>
                            </g>
                            <g id="编组" transform="translate(12.656898, 5.905132)">
                                <mask id="mask-8" fill="white">
                                    <use xlink:href="#path-7"></use>
                                </mask>
                                <g id="Clip-8"></g>
                                <polygon id="Fill-7" fill="url(#linearGradient-9)" mask="url(#mask-8)" points="0.0976141587 21.5393957 12.8522997 0.00833675489 25.6068119 0.00833675489"></polygon>
                            </g>
                            <g id="编组" transform="translate(0.000000, 5.905132)">
                                <mask id="mask-11" fill="white">
                                    <use xlink:href="#path-10"></use>
                                </mask>
                                <g id="Clip-10"></g>
                                <polygon id="Fill-9" fill="url(#linearGradient-12)" mask="url(#mask-11)" points="0 0.00833675489 11.1011399 18.7483197 6.8496358 0.00833675489"></polygon>
                            </g>
                        </g>
                        <g id="编组-4" transform="translate(49.885443, 9.552532)">
                            <path d="M19.1240528,25.4473654 L9.13396508,14.0101868 L9.13396508,11.4367926 L18.8387428,11.4367926 L18.8387428,5.14659528 L6.27951671,5.14659528 L6.27951671,25.4473654 L-1.42108547e-14,25.4473654 L-1.42108547e-14,5.14659528 L-1.42108547e-14,1.77635684e-15 L6.27951671,1.77635684e-15 L18.8387428,1.77635684e-15 L25.1180668,1.77635684e-15 L25.1180668,5.14659528 L25.1180668,11.4367926 L25.1180668,16.5835809 L19.3737231,16.5835809 L27.1162,25.4473654 L19.1240528,25.4473654 Z M51.0783857,25.4473654 L49.9814546,20.3007701 L40.2319828,20.3007701 L41.373608,15.1539818 L48.884716,15.1539818 L46.7519228,5.14659528 L40.5621795,5.14659528 L36.2359092,25.4473654 L29.6708898,25.4473654 L35.0940913,1.77635684e-15 L36.2359092,1.77635684e-15 L41.6591107,1.77635684e-15 L45.6551843,1.77635684e-15 L50.5075731,1.77635684e-15 L52.220011,1.77635684e-15 L57.6434051,25.4473654 L51.0783857,25.4473654 Z M77.0387046,1.77635684e-15 L84.7453492,1.77635684e-15 L73.6134436,15.1539818 L73.6134436,25.4473654 L67.3339269,25.4473654 L67.3339269,15.1539818 L56.2020213,1.77635684e-15 L63.9086659,1.77635684e-15 L70.4199368,8.86359148 L70.5274337,8.86359148 L77.0387046,1.77635684e-15 Z" id="Fill-11" fill="#00EAFF"></path>
                            <path d="M161.798059,1.77635684e-15 L155.51835,1.77635684e-15 L146.384577,1.77635684e-15 L146.384577,5.14659528 L155.51835,5.14659528 L155.51835,25.4473654 L161.798059,25.4473654 L161.798059,5.14659528 L170.075516,5.14659528 L171.217142,1.77635684e-15 L161.798059,1.77635684e-15 Z M124.499125,1.77635684e-15 L118.219608,1.77635684e-15 L118.219608,5.14659528 L118.219608,10.0071936 L118.219608,15.1539818 L118.219608,25.4473654 L119.075923,25.4473654 L124.499125,25.4473654 L140.483419,25.4473654 L141.625044,20.3007701 L124.499125,20.3007701 L124.499125,15.1539818 L136.772848,15.1539818 L136.772848,10.0071936 L124.499125,10.0071936 L124.499125,5.14659528 L139.627104,5.14659528 L140.768729,1.77635684e-15 L124.499125,1.77635684e-15 Z M103.469795,1.77635684e-15 L94.6215248,1.77635684e-15 L88.3418154,1.77635684e-15 L88.3418154,5.14659528 L88.3418154,17.4415719 L94.6215248,17.4415719 L94.6215248,5.14659528 L103.469795,5.14659528 L103.469795,10.0071936 L98.6174057,10.0071936 L97.4759731,15.1539818 L106.609746,15.1539818 L106.609746,20.3007701 L88.3418154,20.3007701 L88.3418154,25.4473654 L106.609746,25.4473654 L109.749311,25.4473654 L112.88907,25.4473654 L112.88907,10.0071936 L111.461942,10.0071936 L109.749311,10.0071936 L109.749311,5.14659528 L109.749311,1.77635684e-15 L103.469795,1.77635684e-15 Z" id="Fill-12" fill="#C6E1F9"></path>
                        </g>
                    </g>
                </g>
            </g>
        </g>
    </g>
</svg>